<mxfile host="app.diagrams.net" modified="2023-02-02T08:47:02.981Z" agent="5.0 (Windows NT 10.0; Win64; x64) AppleWebKit/537.36 (KHTML, like Gecko) Chrome/109.0.0.0 Safari/537.36" etag="VynQQhNA6ZrkYLdLpDHx" version="20.8.10" type="github">
  <diagram name="Strona-1" id="GzYK3G98QcB7_8TlXG0R">
    <mxGraphModel dx="1764" dy="1960" grid="1" gridSize="10" guides="1" tooltips="1" connect="1" arrows="1" fold="1" page="1" pageScale="1" pageWidth="827" pageHeight="1169" math="0" shadow="0">
      <root>
        <mxCell id="0" />
        <mxCell id="1" parent="0" />
        <mxCell id="_P71bPCZJ-UmDSObnK18-1" value="" style="rounded=0;whiteSpace=wrap;html=1;" vertex="1" parent="1">
          <mxGeometry x="290" y="170" width="120" height="30" as="geometry" />
        </mxCell>
        <mxCell id="_P71bPCZJ-UmDSObnK18-2" value="" style="rounded=0;whiteSpace=wrap;html=1;" vertex="1" parent="1">
          <mxGeometry x="290" y="180" width="120" height="50" as="geometry" />
        </mxCell>
        <mxCell id="_P71bPCZJ-UmDSObnK18-4" value="currentUserID" style="text;html=1;strokeColor=none;fillColor=none;align=center;verticalAlign=middle;whiteSpace=wrap;rounded=0;" vertex="1" parent="1">
          <mxGeometry x="307.5" y="160" width="75" height="30" as="geometry" />
        </mxCell>
        <mxCell id="_P71bPCZJ-UmDSObnK18-5" value="" style="rounded=0;whiteSpace=wrap;html=1;" vertex="1" parent="1">
          <mxGeometry x="290" y="200" width="120" as="geometry" />
        </mxCell>
        <mxCell id="_P71bPCZJ-UmDSObnK18-6" value="PK :email" style="text;html=1;strokeColor=none;fillColor=none;align=center;verticalAlign=middle;whiteSpace=wrap;rounded=0;" vertex="1" parent="1">
          <mxGeometry x="280" y="190" width="130" height="20" as="geometry" />
        </mxCell>
        <mxCell id="_P71bPCZJ-UmDSObnK18-8" value="" style="rounded=0;whiteSpace=wrap;html=1;" vertex="1" parent="1">
          <mxGeometry x="362.5" y="455" width="120" height="30" as="geometry" />
        </mxCell>
        <mxCell id="_P71bPCZJ-UmDSObnK18-9" value="" style="rounded=0;whiteSpace=wrap;html=1;" vertex="1" parent="1">
          <mxGeometry x="362.5" y="465" width="120" height="120" as="geometry" />
        </mxCell>
        <mxCell id="_P71bPCZJ-UmDSObnK18-10" value="transactions" style="text;html=1;strokeColor=none;fillColor=none;align=center;verticalAlign=middle;whiteSpace=wrap;rounded=0;" vertex="1" parent="1">
          <mxGeometry x="380" y="445" width="75" height="30" as="geometry" />
        </mxCell>
        <mxCell id="_P71bPCZJ-UmDSObnK18-11" value="" style="rounded=0;whiteSpace=wrap;html=1;" vertex="1" parent="1">
          <mxGeometry x="362.5" y="485" width="120" as="geometry" />
        </mxCell>
        <mxCell id="_P71bPCZJ-UmDSObnK18-12" value="FK&amp;nbsp; : transaction_owner" style="text;html=1;strokeColor=none;fillColor=none;align=center;verticalAlign=middle;whiteSpace=wrap;rounded=0;" vertex="1" parent="1">
          <mxGeometry x="362.5" y="465" width="120" height="30" as="geometry" />
        </mxCell>
        <mxCell id="_P71bPCZJ-UmDSObnK18-14" value="" style="rounded=0;whiteSpace=wrap;html=1;" vertex="1" parent="1">
          <mxGeometry x="362.5" y="495" width="120" height="90" as="geometry" />
        </mxCell>
        <mxCell id="_P71bPCZJ-UmDSObnK18-15" value="amount&lt;br&gt;description" style="text;html=1;strokeColor=none;fillColor=none;align=center;verticalAlign=middle;whiteSpace=wrap;rounded=0;" vertex="1" parent="1">
          <mxGeometry x="362.5" y="495" width="120" height="90" as="geometry" />
        </mxCell>
        <mxCell id="_P71bPCZJ-UmDSObnK18-27" value="" style="rounded=0;whiteSpace=wrap;html=1;" vertex="1" parent="1">
          <mxGeometry x="480" width="120" height="30" as="geometry" />
        </mxCell>
        <mxCell id="_P71bPCZJ-UmDSObnK18-28" value="" style="rounded=0;whiteSpace=wrap;html=1;" vertex="1" parent="1">
          <mxGeometry x="480" y="40" width="120" height="120" as="geometry" />
        </mxCell>
        <mxCell id="_P71bPCZJ-UmDSObnK18-29" value="workers" style="text;html=1;strokeColor=none;fillColor=none;align=center;verticalAlign=middle;whiteSpace=wrap;rounded=0;" vertex="1" parent="1">
          <mxGeometry x="502.5" y="-5" width="75" height="30" as="geometry" />
        </mxCell>
        <mxCell id="_P71bPCZJ-UmDSObnK18-30" value="" style="rounded=0;whiteSpace=wrap;html=1;" vertex="1" parent="1">
          <mxGeometry x="480" y="10" width="120" as="geometry" />
        </mxCell>
        <mxCell id="_P71bPCZJ-UmDSObnK18-32" value="" style="rounded=0;whiteSpace=wrap;html=1;" vertex="1" parent="1">
          <mxGeometry x="480" y="20" width="120" height="30" as="geometry" />
        </mxCell>
        <mxCell id="_P71bPCZJ-UmDSObnK18-33" value="name&lt;br&gt;surname&lt;br&gt;salary&lt;br&gt;role" style="text;html=1;strokeColor=none;fillColor=none;align=center;verticalAlign=middle;whiteSpace=wrap;rounded=0;" vertex="1" parent="1">
          <mxGeometry x="480" y="55" width="120" height="90" as="geometry" />
        </mxCell>
        <mxCell id="_P71bPCZJ-UmDSObnK18-34" value="FK : bossID" style="text;html=1;strokeColor=none;fillColor=none;align=center;verticalAlign=middle;whiteSpace=wrap;rounded=0;" vertex="1" parent="1">
          <mxGeometry x="480" y="20" width="120" height="20" as="geometry" />
        </mxCell>
        <mxCell id="_P71bPCZJ-UmDSObnK18-36" value="" style="rounded=0;whiteSpace=wrap;html=1;" vertex="1" parent="1">
          <mxGeometry x="460" y="-175" width="120" height="30" as="geometry" />
        </mxCell>
        <mxCell id="_P71bPCZJ-UmDSObnK18-37" value="" style="rounded=0;whiteSpace=wrap;html=1;" vertex="1" parent="1">
          <mxGeometry x="460" y="-135" width="120" height="120" as="geometry" />
        </mxCell>
        <mxCell id="_P71bPCZJ-UmDSObnK18-38" value="available orders" style="text;html=1;strokeColor=none;fillColor=none;align=center;verticalAlign=middle;whiteSpace=wrap;rounded=0;" vertex="1" parent="1">
          <mxGeometry x="482.5" y="-180" width="87.5" height="30" as="geometry" />
        </mxCell>
        <mxCell id="_P71bPCZJ-UmDSObnK18-39" value="" style="rounded=0;whiteSpace=wrap;html=1;" vertex="1" parent="1">
          <mxGeometry x="460" y="-165" width="120" as="geometry" />
        </mxCell>
        <mxCell id="_P71bPCZJ-UmDSObnK18-40" value="" style="rounded=0;whiteSpace=wrap;html=1;" vertex="1" parent="1">
          <mxGeometry x="460" y="-155" width="120" height="30" as="geometry" />
        </mxCell>
        <mxCell id="_P71bPCZJ-UmDSObnK18-41" value="description&lt;br&gt;location&lt;br&gt;value" style="text;html=1;strokeColor=none;fillColor=none;align=center;verticalAlign=middle;whiteSpace=wrap;rounded=0;" vertex="1" parent="1">
          <mxGeometry x="460" y="-120" width="120" height="90" as="geometry" />
        </mxCell>
        <mxCell id="_P71bPCZJ-UmDSObnK18-42" value="FK : owner" style="text;html=1;strokeColor=none;fillColor=none;align=center;verticalAlign=middle;whiteSpace=wrap;rounded=0;" vertex="1" parent="1">
          <mxGeometry x="460" y="-155" width="120" height="20" as="geometry" />
        </mxCell>
        <mxCell id="_P71bPCZJ-UmDSObnK18-43" value="" style="rounded=0;whiteSpace=wrap;html=1;" vertex="1" parent="1">
          <mxGeometry x="490" y="260" width="120" height="30" as="geometry" />
        </mxCell>
        <mxCell id="_P71bPCZJ-UmDSObnK18-44" value="" style="rounded=0;whiteSpace=wrap;html=1;" vertex="1" parent="1">
          <mxGeometry x="490" y="300" width="120" height="120" as="geometry" />
        </mxCell>
        <mxCell id="_P71bPCZJ-UmDSObnK18-45" value="active orders" style="text;html=1;strokeColor=none;fillColor=none;align=center;verticalAlign=middle;whiteSpace=wrap;rounded=0;" vertex="1" parent="1">
          <mxGeometry x="512.5" y="255" width="87.5" height="30" as="geometry" />
        </mxCell>
        <mxCell id="_P71bPCZJ-UmDSObnK18-46" value="" style="rounded=0;whiteSpace=wrap;html=1;" vertex="1" parent="1">
          <mxGeometry x="490" y="270" width="120" as="geometry" />
        </mxCell>
        <mxCell id="_P71bPCZJ-UmDSObnK18-47" value="" style="rounded=0;whiteSpace=wrap;html=1;" vertex="1" parent="1">
          <mxGeometry x="490" y="280" width="120" height="30" as="geometry" />
        </mxCell>
        <mxCell id="_P71bPCZJ-UmDSObnK18-48" value="description&lt;br&gt;location&lt;br&gt;value" style="text;html=1;strokeColor=none;fillColor=none;align=center;verticalAlign=middle;whiteSpace=wrap;rounded=0;" vertex="1" parent="1">
          <mxGeometry x="490" y="315" width="120" height="90" as="geometry" />
        </mxCell>
        <mxCell id="_P71bPCZJ-UmDSObnK18-49" value="FK : owner" style="text;html=1;strokeColor=none;fillColor=none;align=center;verticalAlign=middle;whiteSpace=wrap;rounded=0;" vertex="1" parent="1">
          <mxGeometry x="490" y="280" width="120" height="20" as="geometry" />
        </mxCell>
        <mxCell id="_P71bPCZJ-UmDSObnK18-53" value="" style="edgeStyle=entityRelationEdgeStyle;fontSize=12;html=1;endArrow=ERoneToMany;rounded=0;exitX=1;exitY=0.5;exitDx=0;exitDy=0;" edge="1" parent="1" source="_P71bPCZJ-UmDSObnK18-2">
          <mxGeometry width="100" height="100" relative="1" as="geometry">
            <mxPoint x="400" y="180" as="sourcePoint" />
            <mxPoint x="480" y="80" as="targetPoint" />
          </mxGeometry>
        </mxCell>
        <mxCell id="_P71bPCZJ-UmDSObnK18-54" value="" style="edgeStyle=entityRelationEdgeStyle;fontSize=12;html=1;endArrow=ERoneToMany;rounded=0;exitX=1;exitY=0.5;exitDx=0;exitDy=0;entryX=0;entryY=0.25;entryDx=0;entryDy=0;" edge="1" parent="1" target="_P71bPCZJ-UmDSObnK18-48">
          <mxGeometry width="100" height="100" relative="1" as="geometry">
            <mxPoint x="409" y="219.99999999999977" as="sourcePoint" />
            <mxPoint x="490" y="295" as="targetPoint" />
          </mxGeometry>
        </mxCell>
        <mxCell id="_P71bPCZJ-UmDSObnK18-57" value="" style="edgeStyle=entityRelationEdgeStyle;fontSize=12;html=1;endArrow=ERoneToMany;rounded=0;" edge="1" parent="1">
          <mxGeometry width="100" height="100" relative="1" as="geometry">
            <mxPoint x="400" y="180" as="sourcePoint" />
            <mxPoint x="460" y="-60" as="targetPoint" />
          </mxGeometry>
        </mxCell>
        <mxCell id="_P71bPCZJ-UmDSObnK18-59" value="" style="edgeStyle=entityRelationEdgeStyle;fontSize=12;html=1;endArrow=ERoneToMany;rounded=0;entryX=0.004;entryY=0.438;entryDx=0;entryDy=0;exitX=0.065;exitY=0.982;exitDx=0;exitDy=0;exitPerimeter=0;entryPerimeter=0;" edge="1" parent="1" source="_P71bPCZJ-UmDSObnK18-2" target="_P71bPCZJ-UmDSObnK18-15">
          <mxGeometry width="100" height="100" relative="1" as="geometry">
            <mxPoint x="340" y="260" as="sourcePoint" />
            <mxPoint x="382.4999999999998" y="417.5" as="targetPoint" />
          </mxGeometry>
        </mxCell>
      </root>
    </mxGraphModel>
  </diagram>
</mxfile>
